<svg id="visual" viewBox="0 0 1920 1080" width="1920" height="1080" xmlns="http://www.w3.org/2000/svg" xmlns:xlink="http://www.w3.org/1999/xlink" version="1.1"><g stroke-width="1" stroke-linejoin="bevel"><path d="M982 633.1L1131 581.1L1075 472.9Z" fill="#86a9c9" stroke="#86a9c9"></path><path d="M1075 472.9L992 417.9L982 633.1Z" fill="#79a0c2" stroke="#79a0c2"></path><path d="M780 472.9L800 642.1L982 633.1Z" fill="#a8c2d9" stroke="#a8c2d9"></path><path d="M800 642.1L920 797.4L982 633.1Z" fill="#80a5c5" stroke="#80a5c5"></path><path d="M982 633.1L1162 808.4L1131 581.1Z" fill="#79a0c2" stroke="#79a0c2"></path><path d="M1139 271.6L959 304.6L992 417.9Z" fill="#8daecc" stroke="#8daecc"></path><path d="M992 417.9L780 472.9L982 633.1Z" fill="#729bbf" stroke="#729bbf"></path><path d="M959 304.6L780 472.9L992 417.9Z" fill="#80a5c5" stroke="#80a5c5"></path><path d="M920 797.4L1162 808.4L982 633.1Z" fill="#a2bdd6" stroke="#a2bdd6"></path><path d="M1301 663.1L1280 415.9L1131 581.1Z" fill="#a2bdd6" stroke="#a2bdd6"></path><path d="M1131 581.1L1280 415.9L1075 472.9Z" fill="#a2bdd6" stroke="#a2bdd6"></path><path d="M1075 472.9L1139 271.6L992 417.9Z" fill="#94b3cf" stroke="#94b3cf"></path><path d="M1162 808.4L1301 663.1L1131 581.1Z" fill="#9bb8d2" stroke="#9bb8d2"></path><path d="M1280 415.9L1139 271.6L1075 472.9Z" fill="#a8c2d9" stroke="#a8c2d9"></path><path d="M920 797.4L1110 877.7L1162 808.4Z" fill="#94b3cf" stroke="#94b3cf"></path><path d="M1162 808.4L1265 805.4L1301 663.1Z" fill="#9bb8d2" stroke="#9bb8d2"></path><path d="M1266 928.7L1265 805.4L1162 808.4Z" fill="#79a0c2" stroke="#79a0c2"></path><path d="M800 642.1L781 791.4L920 797.4Z" fill="#afc7dd" stroke="#afc7dd"></path><path d="M920 797.4L1000 951.7L1110 877.7Z" fill="#86a9c9" stroke="#86a9c9"></path><path d="M656 744.4L781 791.4L800 642.1Z" fill="#94b3cf" stroke="#94b3cf"></path><path d="M1450 467.9L1318 335.6L1280 415.9Z" fill="#94b3cf" stroke="#94b3cf"></path><path d="M1280 415.9L1318 335.6L1139 271.6Z" fill="#afc7dd" stroke="#afc7dd"></path><path d="M997 107.3L814 275.6L959 304.6Z" fill="#a2bdd6" stroke="#a2bdd6"></path><path d="M959 304.6L814 275.6L780 472.9Z" fill="#80a5c5" stroke="#80a5c5"></path><path d="M1243 127.3L1095 197.3L1139 271.6Z" fill="#b6cce0" stroke="#b6cce0"></path><path d="M1139 271.6L1095 197.3L959 304.6Z" fill="#a2bdd6" stroke="#a2bdd6"></path><path d="M1443 777.4L1394 656.1L1301 663.1Z" fill="#a8c2d9" stroke="#a8c2d9"></path><path d="M1301 663.1L1450 467.9L1280 415.9Z" fill="#9bb8d2" stroke="#9bb8d2"></path><path d="M627 340.6L664 451.9L780 472.9Z" fill="#9bb8d2" stroke="#9bb8d2"></path><path d="M780 472.9L638 629.1L800 642.1Z" fill="#94b3cf" stroke="#94b3cf"></path><path d="M789 908.7L1000 951.7L920 797.4Z" fill="#86a9c9" stroke="#86a9c9"></path><path d="M1110 877.7L1266 928.7L1162 808.4Z" fill="#afc7dd" stroke="#afc7dd"></path><path d="M664 451.9L638 629.1L780 472.9Z" fill="#729bbf" stroke="#729bbf"></path><path d="M1394 656.1L1450 467.9L1301 663.1Z" fill="#a8c2d9" stroke="#a8c2d9"></path><path d="M638 629.1L656 744.4L800 642.1Z" fill="#86a9c9" stroke="#86a9c9"></path><path d="M781 791.4L789 908.7L920 797.4Z" fill="#8daecc" stroke="#8daecc"></path><path d="M654 963.7L789 908.7L781 791.4Z" fill="#729bbf" stroke="#729bbf"></path><path d="M1072 1080L1266 928.7L1110 877.7Z" fill="#80a5c5" stroke="#80a5c5"></path><path d="M1265 805.4L1443 777.4L1301 663.1Z" fill="#729bbf" stroke="#729bbf"></path><path d="M1103 0L997 107.3L1095 197.3Z" fill="#afc7dd" stroke="#afc7dd"></path><path d="M1095 197.3L997 107.3L959 304.6Z" fill="#a2bdd6" stroke="#a2bdd6"></path><path d="M1422 896.7L1443 777.4L1265 805.4Z" fill="#79a0c2" stroke="#79a0c2"></path><path d="M1616 646.1L1568 429.9L1450 467.9Z" fill="#8daecc" stroke="#8daecc"></path><path d="M814 275.6L627 340.6L780 472.9Z" fill="#a8c2d9" stroke="#a8c2d9"></path><path d="M448 622.1L509 743.4L638 629.1Z" fill="#8daecc" stroke="#8daecc"></path><path d="M758 180.3L627 340.6L814 275.6Z" fill="#94b3cf" stroke="#94b3cf"></path><path d="M997 107.3L758 180.3L814 275.6Z" fill="#b6cce0" stroke="#b6cce0"></path><path d="M1427 189.3L1243 127.3L1318 335.6Z" fill="#afc7dd" stroke="#afc7dd"></path><path d="M1318 335.6L1243 127.3L1139 271.6Z" fill="#afc7dd" stroke="#afc7dd"></path><path d="M1568 429.9L1478 345.6L1450 467.9Z" fill="#8daecc" stroke="#8daecc"></path><path d="M1450 467.9L1478 345.6L1318 335.6Z" fill="#a8c2d9" stroke="#a8c2d9"></path><path d="M1266 928.7L1422 896.7L1265 805.4Z" fill="#79a0c2" stroke="#79a0c2"></path><path d="M986 1080L1072 1080L1000 951.7Z" fill="#9bb8d2" stroke="#9bb8d2"></path><path d="M1000 951.7L1072 1080L1110 877.7Z" fill="#729bbf" stroke="#729bbf"></path><path d="M1266 928.7L1320 1080L1422 896.7Z" fill="#9bb8d2" stroke="#9bb8d2"></path><path d="M829 1080L986 1080L1000 951.7Z" fill="#a8c2d9" stroke="#a8c2d9"></path><path d="M1478 345.6L1427 189.3L1318 335.6Z" fill="#afc7dd" stroke="#afc7dd"></path><path d="M1616 646.1L1450 467.9L1394 656.1Z" fill="#9bb8d2" stroke="#9bb8d2"></path><path d="M1478 345.6L1646 320.6L1427 189.3Z" fill="#80a5c5" stroke="#80a5c5"></path><path d="M1616 646.1L1394 656.1L1443 777.4Z" fill="#afc7dd" stroke="#afc7dd"></path><path d="M656 744.4L654 963.7L781 791.4Z" fill="#b6cce0" stroke="#b6cce0"></path><path d="M789 908.7L829 1080L1000 951.7Z" fill="#80a5c5" stroke="#80a5c5"></path><path d="M495 906.7L654 963.7L656 744.4Z" fill="#79a0c2" stroke="#79a0c2"></path><path d="M624 0L628 179.3L758 180.3Z" fill="#afc7dd" stroke="#afc7dd"></path><path d="M758 180.3L628 179.3L627 340.6Z" fill="#94b3cf" stroke="#94b3cf"></path><path d="M654 963.7L829 1080L789 908.7Z" fill="#b6cce0" stroke="#b6cce0"></path><path d="M448 622.1L638 629.1L458 426.9Z" fill="#79a0c2" stroke="#79a0c2"></path><path d="M638 629.1L509 743.4L656 744.4Z" fill="#86a9c9" stroke="#86a9c9"></path><path d="M638 629.1L664 451.9L458 426.9Z" fill="#94b3cf" stroke="#94b3cf"></path><path d="M1235 0L1103 0L1243 127.3Z" fill="#afc7dd" stroke="#afc7dd"></path><path d="M1243 127.3L1103 0L1095 197.3Z" fill="#a2bdd6" stroke="#a2bdd6"></path><path d="M997 107.3L938 0L758 180.3Z" fill="#a2bdd6" stroke="#a2bdd6"></path><path d="M1103 0L938 0L997 107.3Z" fill="#80a5c5" stroke="#80a5c5"></path><path d="M1588 786.4L1616 646.1L1443 777.4Z" fill="#9bb8d2" stroke="#9bb8d2"></path><path d="M1072 1080L1320 1080L1266 928.7Z" fill="#8daecc" stroke="#8daecc"></path><path d="M1422 896.7L1588 786.4L1443 777.4Z" fill="#9bb8d2" stroke="#9bb8d2"></path><path d="M1410 0L1235 0L1243 127.3Z" fill="#a8c2d9" stroke="#a8c2d9"></path><path d="M1590 951.7L1588 786.4L1422 896.7Z" fill="#9bb8d2" stroke="#9bb8d2"></path><path d="M458 426.9L664 451.9L627 340.6Z" fill="#9bb8d2" stroke="#9bb8d2"></path><path d="M440 311.6L458 426.9L627 340.6Z" fill="#9bb8d2" stroke="#9bb8d2"></path><path d="M938 0L788 0L758 180.3Z" fill="#80a5c5" stroke="#80a5c5"></path><path d="M502 1080L668 1080L654 963.7Z" fill="#79a0c2" stroke="#79a0c2"></path><path d="M654 963.7L668 1080L829 1080Z" fill="#9bb8d2" stroke="#9bb8d2"></path><path d="M495 906.7L656 744.4L509 743.4Z" fill="#80a5c5" stroke="#80a5c5"></path><path d="M360 805.4L495 906.7L509 743.4Z" fill="#80a5c5" stroke="#80a5c5"></path><path d="M628 179.3L440 311.6L627 340.6Z" fill="#a2bdd6" stroke="#a2bdd6"></path><path d="M458 426.9L366 454.9L448 622.1Z" fill="#afc7dd" stroke="#afc7dd"></path><path d="M446 125.3L440 311.6L628 179.3Z" fill="#a2bdd6" stroke="#a2bdd6"></path><path d="M1568 429.9L1646 320.6L1478 345.6Z" fill="#afc7dd" stroke="#afc7dd"></path><path d="M1427 189.3L1410 0L1243 127.3Z" fill="#94b3cf" stroke="#94b3cf"></path><path d="M1720 490.9L1646 320.6L1568 429.9Z" fill="#80a5c5" stroke="#80a5c5"></path><path d="M1320 1080L1447 1080L1422 896.7Z" fill="#94b3cf" stroke="#94b3cf"></path><path d="M1636 113.3L1410 0L1427 189.3Z" fill="#86a9c9" stroke="#86a9c9"></path><path d="M1447 1080L1590 951.7L1422 896.7Z" fill="#a8c2d9" stroke="#a8c2d9"></path><path d="M1739 610.1L1720 490.9L1616 646.1Z" fill="#a2bdd6" stroke="#a2bdd6"></path><path d="M1616 646.1L1720 490.9L1568 429.9Z" fill="#8daecc" stroke="#8daecc"></path><path d="M440 311.6L366 454.9L458 426.9Z" fill="#729bbf" stroke="#729bbf"></path><path d="M448 622.1L360 805.4L509 743.4Z" fill="#94b3cf" stroke="#94b3cf"></path><path d="M1739 610.1L1616 646.1L1792 814.4Z" fill="#86a9c9" stroke="#86a9c9"></path><path d="M788 0L624 0L758 180.3Z" fill="#86a9c9" stroke="#86a9c9"></path><path d="M366 454.9L343 584.1L448 622.1Z" fill="#80a5c5" stroke="#80a5c5"></path><path d="M1792 814.4L1616 646.1L1588 786.4Z" fill="#9bb8d2" stroke="#9bb8d2"></path><path d="M343 584.1L360 805.4L448 622.1Z" fill="#86a9c9" stroke="#86a9c9"></path><path d="M495 906.7L502 1080L654 963.7Z" fill="#afc7dd" stroke="#afc7dd"></path><path d="M514 0L446 125.3L628 179.3Z" fill="#a2bdd6" stroke="#a2bdd6"></path><path d="M440 311.6L295 318.6L366 454.9Z" fill="#a2bdd6" stroke="#a2bdd6"></path><path d="M1763 168.3L1636 113.3L1646 320.6Z" fill="#9bb8d2" stroke="#9bb8d2"></path><path d="M1646 320.6L1636 113.3L1427 189.3Z" fill="#9bb8d2" stroke="#9bb8d2"></path><path d="M360 805.4L366 880.7L495 906.7Z" fill="#b6cce0" stroke="#b6cce0"></path><path d="M340 1080L502 1080L495 906.7Z" fill="#729bbf" stroke="#729bbf"></path><path d="M1447 1080L1593 1080L1590 951.7Z" fill="#b6cce0" stroke="#b6cce0"></path><path d="M1786 892.7L1792 814.4L1588 786.4Z" fill="#b6cce0" stroke="#b6cce0"></path><path d="M624 0L514 0L628 179.3Z" fill="#a2bdd6" stroke="#a2bdd6"></path><path d="M332 134.3L295 318.6L440 311.6Z" fill="#8daecc" stroke="#8daecc"></path><path d="M366 454.9L150 498.9L343 584.1Z" fill="#8daecc" stroke="#8daecc"></path><path d="M343 584.1L203 755.4L360 805.4Z" fill="#a2bdd6" stroke="#a2bdd6"></path><path d="M360 805.4L203 755.4L366 880.7Z" fill="#86a9c9" stroke="#86a9c9"></path><path d="M332 134.3L440 311.6L446 125.3Z" fill="#b6cce0" stroke="#b6cce0"></path><path d="M1786 892.7L1588 786.4L1590 951.7Z" fill="#79a0c2" stroke="#79a0c2"></path><path d="M1920 477.9L1800 284.6L1720 490.9Z" fill="#94b3cf" stroke="#94b3cf"></path><path d="M1720 490.9L1800 284.6L1646 320.6Z" fill="#94b3cf" stroke="#94b3cf"></path><path d="M1920 477.9L1720 490.9L1739 610.1Z" fill="#94b3cf" stroke="#94b3cf"></path><path d="M1719 0L1633 0L1636 113.3Z" fill="#a8c2d9" stroke="#a8c2d9"></path><path d="M1636 113.3L1633 0L1410 0Z" fill="#8daecc" stroke="#8daecc"></path><path d="M1782 1080L1786 892.7L1590 951.7Z" fill="#afc7dd" stroke="#afc7dd"></path><path d="M1800 284.6L1763 168.3L1646 320.6Z" fill="#a2bdd6" stroke="#a2bdd6"></path><path d="M350 0L332 134.3L446 125.3Z" fill="#79a0c2" stroke="#79a0c2"></path><path d="M113 651.1L203 755.4L343 584.1Z" fill="#80a5c5" stroke="#80a5c5"></path><path d="M366 880.7L340 1080L495 906.7Z" fill="#94b3cf" stroke="#94b3cf"></path><path d="M150 498.9L366 454.9L295 318.6Z" fill="#8daecc" stroke="#8daecc"></path><path d="M197 944.7L340 1080L366 880.7Z" fill="#a8c2d9" stroke="#a8c2d9"></path><path d="M1920 0L1719 0L1763 168.3Z" fill="#86a9c9" stroke="#86a9c9"></path><path d="M1763 168.3L1719 0L1636 113.3Z" fill="#9bb8d2" stroke="#9bb8d2"></path><path d="M1920 723.4L1739 610.1L1792 814.4Z" fill="#afc7dd" stroke="#afc7dd"></path><path d="M1920 723.4L1920 620.1L1739 610.1Z" fill="#8daecc" stroke="#8daecc"></path><path d="M1800 284.6L1920 130.3L1763 168.3Z" fill="#729bbf" stroke="#729bbf"></path><path d="M1920 620.1L1920 477.9L1739 610.1Z" fill="#8daecc" stroke="#8daecc"></path><path d="M514 0L350 0L446 125.3Z" fill="#afc7dd" stroke="#afc7dd"></path><path d="M132 261.6L150 498.9L295 318.6Z" fill="#9bb8d2" stroke="#9bb8d2"></path><path d="M132 261.6L295 318.6L332 134.3Z" fill="#a8c2d9" stroke="#a8c2d9"></path><path d="M1920 954.7L1920 723.4L1792 814.4Z" fill="#86a9c9" stroke="#86a9c9"></path><path d="M1593 1080L1782 1080L1590 951.7Z" fill="#80a5c5" stroke="#80a5c5"></path><path d="M1786 892.7L1920 954.7L1792 814.4Z" fill="#80a5c5" stroke="#80a5c5"></path><path d="M1920 477.9L1920 298.6L1800 284.6Z" fill="#729bbf" stroke="#729bbf"></path><path d="M0 935.7L197 944.7L203 755.4Z" fill="#9bb8d2" stroke="#9bb8d2"></path><path d="M203 755.4L197 944.7L366 880.7Z" fill="#b6cce0" stroke="#b6cce0"></path><path d="M150 498.9L113 651.1L343 584.1Z" fill="#9bb8d2" stroke="#9bb8d2"></path><path d="M146 109.3L132 261.6L332 134.3Z" fill="#79a0c2" stroke="#79a0c2"></path><path d="M150 498.9L0 576.1L113 651.1Z" fill="#729bbf" stroke="#729bbf"></path><path d="M1782 1080L1920 954.7L1786 892.7Z" fill="#79a0c2" stroke="#79a0c2"></path><path d="M1920 298.6L1920 130.3L1800 284.6Z" fill="#a8c2d9" stroke="#a8c2d9"></path><path d="M350 0L146 109.3L332 134.3Z" fill="#94b3cf" stroke="#94b3cf"></path><path d="M1782 1080L1920 1080L1920 954.7Z" fill="#8daecc" stroke="#8daecc"></path><path d="M197 944.7L147 1080L340 1080Z" fill="#a8c2d9" stroke="#a8c2d9"></path><path d="M0 935.7L147 1080L197 944.7Z" fill="#86a9c9" stroke="#86a9c9"></path><path d="M0 505.9L0 576.1L150 498.9Z" fill="#b6cce0" stroke="#b6cce0"></path><path d="M113 651.1L0 754.4L203 755.4Z" fill="#86a9c9" stroke="#86a9c9"></path><path d="M0 505.9L150 498.9L0 343.6Z" fill="#b6cce0" stroke="#b6cce0"></path><path d="M0 343.6L150 498.9L132 261.6Z" fill="#b6cce0" stroke="#b6cce0"></path><path d="M1920 130.3L1920 0L1763 168.3Z" fill="#80a5c5" stroke="#80a5c5"></path><path d="M0 576.1L0 754.4L113 651.1Z" fill="#afc7dd" stroke="#afc7dd"></path><path d="M0 127.3L0 343.6L132 261.6Z" fill="#b6cce0" stroke="#b6cce0"></path><path d="M350 0L119 0L146 109.3Z" fill="#a2bdd6" stroke="#a2bdd6"></path><path d="M146 109.3L0 127.3L132 261.6Z" fill="#94b3cf" stroke="#94b3cf"></path><path d="M0 754.4L0 935.7L203 755.4Z" fill="#a8c2d9" stroke="#a8c2d9"></path><path d="M119 0L0 127.3L146 109.3Z" fill="#a8c2d9" stroke="#a8c2d9"></path><path d="M0 935.7L0 1080L147 1080Z" fill="#729bbf" stroke="#729bbf"></path><path d="M119 0L0 0L0 127.3Z" fill="#9bb8d2" stroke="#9bb8d2"></path></g></svg>